<?xml version="1.0" encoding="UTF-8" standalone="no"?>
<svg
   xmlns:dc="http://purl.org/dc/elements/1.1/"
   xmlns:cc="http://creativecommons.org/ns#"
   xmlns:rdf="http://www.w3.org/1999/02/22-rdf-syntax-ns#"
   xmlns:svg="http://www.w3.org/2000/svg"
   xmlns="http://www.w3.org/2000/svg"
   xmlns:sodipodi="http://sodipodi.sourceforge.net/DTD/sodipodi-0.dtd"
   xmlns:inkscape="http://www.inkscape.org/namespaces/inkscape"
   width="1440"
   height="1440"
   viewBox="43 -188 937 937"
   id="svg2"
   sodipodi:version="0.32"
   inkscape:version="0.48.1 "
   sodipodi:docname="lpp_logo.svg"
   inkscape:output_extension="org.inkscape.output.svg.inkscape"
   version="1.0"
   inkscape:export-filename="F:\lpp_logo.png"
   inkscape:export-xdpi="25"
   inkscape:export-ydpi="25">
  <metadata
     id="metadata31">
    <rdf:RDF>
      <cc:Work
         rdf:about="">
        <dc:format>image/svg+xml</dc:format>
        <dc:type
           rdf:resource="http://purl.org/dc/dcmitype/StillImage" />
        <dc:title>Lua API++ logo</dc:title>
      </cc:Work>
    </rdf:RDF>
  </metadata>
  <defs
     id="defs29"><inkscape:perspective
   sodipodi:type="inkscape:persp3d"
   inkscape:vp_x="0 : 512 : 1"
   inkscape:vp_y="0 : 1000 : 0"
   inkscape:vp_z="1024 : 512 : 1"
   inkscape:persp3d-origin="512 : 341.33333 : 1"
   id="perspective33" />







	

</defs>
  <sodipodi:namedview
     inkscape:window-height="1076"
     inkscape:window-width="1920"
     inkscape:pageshadow="2"
     inkscape:pageopacity="0.0"
     guidetolerance="10.0"
     gridtolerance="10.0"
     objecttolerance="10.0"
     borderopacity="1.0"
     bordercolor="#666666"
     pagecolor="#ffffff"
     id="base"
     showgrid="false"
     inkscape:zoom="0.45117188"
     inkscape:cx="1089.027"
     inkscape:cy="687.02947"
     inkscape:window-x="-4"
     inkscape:window-y="-4"
     inkscape:current-layer="svg2"
     inkscape:window-maximized="1" />
  <title
     id="title4">Lua API++ logo</title>
  <!-- generated by pstoedit version:3.50 -->
  <g
     id="g3030">
    <g
       transform="matrix(0.975633,0,0,0.975633,16.980554,12.32734)"
       stroke-miterlimit="10"
       id="g8"
       style="fill:#000080;fill-rule:nonzero;stroke-width:0;stroke-linecap:butt;stroke-linejoin:miter;stroke-miterlimit:10">
	<path
   d="M 874.035,280 C 874.035,80.055 711.945,-82.035 512,-82.035 312.055,-82.035 149.965,80.055 149.965,280 c 0,199.945 162.09,362.035 362.035,362.035 199.945,0 362.035,-162.09 362.035,-362.035"
   id="path10"
   inkscape:connector-curvature="0" />

</g>
    <g
       transform="matrix(0.975633,0,0,0.975633,16.980554,12.32734)"
       stroke-miterlimit="10"
       id="g12"
       style="fill:#ffffff;fill-rule:nonzero;stroke-width:0;stroke-linecap:butt;stroke-linejoin:miter;stroke-miterlimit:10">
	<path
   d="m 767.996,130.039 c 0,-58.562 -47.473,-106.035 -106.035,-106.035 -58.563,0 -106.039,47.473 -106.039,106.035 0,58.563 47.476,106.039 106.039,106.039 58.562,0 106.035,-47.476 106.035,-106.039"
   id="path14"
   inkscape:connector-curvature="0" />

</g>
    <g
       transform="matrix(0.975633,0,0,0.975633,16.980554,12.32734)"
       stroke-miterlimit="10"
       id="g16"
       style="fill:#000080;fill-rule:nonzero;stroke-width:0;stroke-linecap:butt;stroke-linejoin:miter;stroke-miterlimit:10">
	<path
   d="m 980.074,-82.035 c 0,-58.563 -47.476,-106.039 -106.039,-106.039 -58.562,0 -106.039,47.476 -106.039,106.039 0,58.562 47.477,106.039 106.039,106.039 58.563,0 106.039,-47.477 106.039,-106.039"
   id="path18"
   inkscape:connector-curvature="0" />

</g>
    <text
       y="580.51813"
       x="307.21707"
       id="text22"
       style="font-size:394.07287598px;fill:#ffffff;stroke:none;font-family:'Helvetica, Arial'">++</text>
    <g
       transform="matrix(0.975633,0,0,0.975633,16.980554,12.32734)"
       stroke-miterlimit="10"
       id="g24"
       style="fill:none;stroke:#808080;stroke-width:10.86120033;stroke-linecap:butt;stroke-linejoin:miter;stroke-miterlimit:10;stroke-dasharray:40.8475;stroke-dashoffset:0">
	<path
   d="M 929.059,67.5 C 962.59,133.312 980.074,206.133 980.074,280 980.074,538.512 770.512,748.074 512,748.074 253.488,748.074 43.9258,538.512 43.9258,280 43.9258,21.488 253.488,-188.074 512,-188.074 c 90.488,0 179.039,26.23 254.93,75.511"
   id="path26"
   inkscape:connector-curvature="0" />

</g>
  </g>
</svg>
